<?xml version="1.0" standalone="no"?>
<!DOCTYPE svg PUBLIC "-//W3C//DTD SVG 20010904//EN"
 "http://www.w3.org/TR/2001/REC-SVG-20010904/DTD/svg10.dtd">
<svg version="1.0" xmlns="http://www.w3.org/2000/svg"
 width="1238.000000pt" height="1238.000000pt" viewBox="0 0 1238.000000 1238.000000"
 preserveAspectRatio="xMidYMid meet">
<metadata>
Created by potrace 1.16, written by Peter Selinger 2001-2019
</metadata>
<g transform="translate(0.000000,1238.000000) scale(0.100000,-0.100000)"
fill="#000000" stroke="none">
<path d="M0 6190 l0 -6190 6190 0 6190 0 0 6190 0 6190 -6190 0 -6190 0 0
-6190z m6568 5160 c215 -23 357 -42 462 -61 138 -25 167 -31 200 -39 19 -5 64
-15 100 -24 92 -21 203 -51 285 -76 39 -12 84 -25 100 -30 51 -13 128 -41 172
-61 24 -10 46 -19 50 -19 15 0 180 -68 328 -136 320 -146 673 -354 930 -547
44 -33 82 -63 85 -67 3 -3 23 -19 45 -35 22 -16 45 -34 50 -39 6 -6 32 -29 58
-50 27 -21 70 -58 95 -82 26 -24 49 -44 52 -44 8 0 340 -327 343 -337 1 -4 6
-7 10 -5 5 1 6 -2 3 -7 -3 -5 1 -14 9 -21 21 -18 218 -258 291 -355 377 -501
680 -1119 844 -1720 68 -252 135 -612 162 -875 17 -166 17 -749 -1 -945 -40
-459 -161 -966 -338 -1415 -422 -1071 -1210 -1984 -2213 -2560 -1351 -777
-3002 -895 -4445 -318 -522 209 -1008 505 -1452 884 -63 55 -119 98 -124 96
-5 -1 -8 4 -7 10 2 7 -3 12 -10 10 -6 -1 -11 4 -10 10 2 7 -3 12 -10 10 -6 -1
-11 4 -10 10 2 7 -3 12 -10 10 -6 -1 -11 4 -10 10 2 7 -3 12 -10 10 -6 -1 -11
4 -10 10 2 7 -4 11 -12 10 -8 -2 -12 0 -7 4 8 9 -52 75 -63 69 -4 -3 -16 5
-26 17 -12 14 -14 18 -4 13 13 -8 13 -6 1 8 -7 9 -17 14 -22 11 -5 -3 -8 0 -7
8 2 7 -4 12 -12 10 -8 -2 -12 0 -7 4 9 9 -63 85 -73 79 -4 -3 -13 8 -19 24 -7
15 -30 45 -51 65 -35 33 -96 105 -185 220 -16 22 -43 55 -60 76 -81 98 -267
387 -377 585 -89 159 -243 485 -287 605 -17 46 -26 70 -39 100 -5 14 -15 41
-22 60 -7 19 -16 44 -20 55 -16 39 -42 121 -60 190 -10 39 -28 102 -40 140
-30 101 -71 281 -91 400 -6 33 -15 83 -20 110 -11 65 -28 196 -40 310 -16 149
-23 774 -10 920 20 220 58 491 90 635 42 189 52 231 103 410 5 19 12 47 15 63
3 15 9 30 14 33 5 3 9 16 9 29 0 13 5 27 10 30 6 3 10 15 10 26 0 10 4 27 10
37 5 9 16 37 24 62 16 50 87 231 117 298 10 23 28 63 40 90 11 26 42 90 67
142 41 84 64 127 140 262 393 693 960 1303 1622 1745 413 274 949 528 1360
643 47 13 70 20 130 38 19 6 78 20 130 32 52 11 109 25 125 29 17 5 62 14 100
21 39 6 88 16 110 20 22 5 78 14 125 20 47 6 109 16 139 21 30 5 79 9 110 10
31 0 76 4 101 8 67 12 726 13 838 1z"/>
<path d="M5825 11289 c-528 -32 -1068 -152 -1560 -349 -230 -91 -552 -252
-726 -360 -46 -29 -112 -70 -145 -91 -81 -49 -256 -175 -369 -263 -416 -325
-851 -796 -1112 -1205 -301 -471 -496 -894 -633 -1371 -139 -487 -194 -888
-193 -1420 0 -289 8 -428 39 -660 144 -1099 646 -2112 1436 -2902 138 -137
325 -309 338 -308 7 1 67 127 87 186 11 32 19 43 21 30 2 -10 -19 -65 -47
-122 l-50 -104 42 -35 c145 -120 257 -203 438 -320 94 -62 197 -125 202 -125
1 0 2 35 2 77 0 105 24 354 41 428 8 36 12 44 9 20 -3 -22 -8 -103 -11 -180
-3 -77 -10 -176 -15 -220 -16 -138 -20 -128 74 -182 45 -27 163 -87 262 -135
751 -360 1561 -525 2395 -489 359 16 683 60 967 132 65 16 154 39 198 50 103
26 390 124 530 182 421 172 832 409 1184 682 376 291 763 693 1030 1069 104
148 251 380 251 398 0 9 12 30 26 45 15 15 78 132 140 258 263 536 417 1055
488 1645 17 143 42 588 33 596 -3 4 -30 -13 -59 -38 -148 -123 -221 -167 -390
-233 -199 -77 -420 -123 -640 -132 -118 -5 -148 -9 -148 -20 0 -23 -79 -275
-124 -398 -71 -191 -265 -536 -390 -694 l-50 -64 -289 6 c-159 3 -286 2 -282
-1 4 -4 133 -9 287 -12 l281 -5 -73 -90 c-135 -167 -420 -442 -600 -581 -265
-203 -549 -383 -772 -489 -43 -20 -78 -39 -78 -41 0 -3 15 -11 33 -19 31 -13
31 -14 -23 -8 -52 5 -63 1 -184 -56 -71 -33 -146 -66 -168 -72 -26 -7 -266
-10 -711 -9 -370 0 -793 1 -942 0 -148 -1 -296 0 -327 0 -37 1 -58 -3 -58 -10
0 -8 -64 -9 -227 -5 -471 11 -759 15 -790 10 -25 -5 -33 -11 -33 -26 0 -20 3
-21 323 -14 177 3 491 8 697 10 206 3 416 8 465 13 105 10 696 9 712 -1 7 -4
42 -7 80 -6 37 1 87 -1 111 -5 34 -6 46 -5 55 8 9 12 21 15 45 10 17 -4 32
-11 32 -16 0 -5 10 -6 23 -2 12 4 45 8 72 9 28 0 56 5 63 9 8 5 11 2 10 -6 -2
-7 3 -11 12 -9 19 6 304 11 299 6 -2 -2 -60 -26 -129 -53 -165 -66 -605 -200
-710 -217 -25 -3 -99 -19 -165 -35 -66 -16 -150 -34 -187 -40 -65 -12 -68 -13
-68 -41 0 -17 12 -42 30 -62 37 -43 39 -59 4 -26 -29 26 -58 85 -49 99 11 18
-14 19 -91 4 -94 -19 -179 -28 -414 -44 -154 -10 -177 -14 -192 -32 -14 -16
-19 -17 -23 -6 -4 10 -28 14 -88 15 -487 11 -618 19 -857 53 -258 37 -616 121
-703 166 -16 9 -53 23 -81 31 -126 37 -407 192 -574 316 -160 119 -348 313
-477 492 -134 187 -296 515 -369 747 -20 63 -36 117 -36 119 0 11 348 15 620
7 275 -8 245 -2 -70 13 -292 15 -289 15 -436 4 -115 -7 -122 -7 -127 11 -17
55 -69 304 -86 409 -22 135 -29 202 -36 325 -3 47 -7 109 -11 139 -4 39 -2 56
8 62 10 7 10 9 1 9 -9 0 -13 16 -13 44 0 41 2 45 28 49 l27 4 -28 2 -27 1 0
108 c0 59 3 137 7 174 l5 66 2337 1 c1285 1 2352 -2 2371 -6 34 -7 34 -7 10
-15 -28 -8 49 -4 168 10 84 10 123 6 116 -13 -8 -20 15 -23 204 -31 116 -4
172 -3 172 4 0 5 -24 12 -52 15 -29 3 -69 9 -88 15 -26 7 28 10 210 11 502 1
1088 11 1190 21 127 12 202 24 255 42 38 13 40 15 37 51 -3 41 7 48 26 17 17
-28 44 -25 76 9 l28 29 -40 109 c-92 253 -132 494 -117 710 7 101 8 105 29 99
11 -4 75 -8 141 -11 l120 -4 -115 9 c-171 14 -164 10 -156 78 4 31 14 73 24
92 l17 35 145 5 145 6 -147 2 c-84 1 -148 6 -148 11 0 25 58 166 103 251 56
105 154 244 215 303 39 38 40 38 82 27 122 -33 208 -92 322 -223 72 -83 153
-226 222 -392 33 -79 94 -291 109 -378 l11 -69 71 7 c237 24 449 22 575 -4 25
-5 82 -17 128 -26 45 -9 115 -27 154 -41 39 -13 73 -22 76 -19 11 11 -50 354
-99 550 -195 783 -577 1508 -1109 2110 -124 140 -445 454 -570 558 -692 571
-1540 960 -2390 1096 -387 62 -777 82 -1155 60z m1306 -1969 c5 0 8 -178 9
-410 l0 -410 -453 2 -452 3 0 140 0 140 85 5 85 4 -85 6 -85 5 -3 160 c-4 222
-11 208 101 201 l92 -5 -91 11 -92 10 -6 36 c-3 21 -6 52 -6 69 l0 33 433 2
c237 2 438 2 445 1 8 -2 18 -3 23 -3z m-2274 -1468 l2 -413 -442 4 c-244 2
-448 7 -455 11 -8 5 -12 46 -12 137 0 116 2 129 18 129 16 1 16 1 0 11 -16 9
-18 33 -18 268 0 142 3 261 7 264 3 4 207 6 452 5 l446 -3 2 -413z m1143 3 l0
-415 -450 0 c-249 0 -452 4 -455 9 -3 5 -2 17 2 26 5 16 18 17 117 12 61 -3
165 -2 231 3 l120 8 -160 -1 c-88 0 -195 0 -237 1 l-78 2 0 125 c0 86 4 125
11 125 8 0 8 4 1 13 -12 14 -17 489 -6 500 4 4 209 7 456 7 l448 0 0 -415z
m1138 21 l-3 -391 -155 -5 -155 -6 158 -2 c86 -1 157 -6 157 -10 0 -14 -216
-22 -570 -22 l-327 0 -7 38 c-11 67 -7 237 6 250 8 8 8 12 1 12 -12 0 -19 502
-7 521 4 6 166 9 455 8 l449 -1 -2 -392z m-3420 -1077 l-3 -410 -450 0 -450 1
-3 306 c-2 218 1 311 9 320 8 10 8 14 1 14 -7 0 -11 32 -11 89 l1 89 454 1
454 1 -2 -411z m399 381 c34 -16 66 -30 71 -29 4 0 -20 14 -53 29 l-60 29 101
1 c67 0 104 -4 113 -12 11 -10 12 -10 7 -1 -5 10 56 13 279 13 l285 0 -2 -413
c-3 -385 -4 -412 -20 -411 -10 0 -214 1 -453 2 l-434 2 0 310 c1 282 2 310 17
310 15 1 15 2 0 11 -15 8 -18 25 -18 99 l0 90 52 0 c36 0 70 -9 115 -30z
m1881 -381 l-3 -410 -445 0 c-245 1 -448 1 -452 1 -4 0 -7 185 -6 410 l1 410
454 0 453 0 -2 -411z m1142 1 c0 -267 -3 -410 -10 -410 -5 0 -207 0 -447 0
-344 -1 -438 2 -445 12 -11 18 -8 618 4 618 5 0 4 9 -2 19 -5 11 -10 36 -10
55 l0 36 53 2 52 1 -50 6 c-37 5 -51 11 -53 24 -9 48 -23 47 458 47 l450 0 0
-410z m1138 -1 l-3 -410 -445 0 -445 1 -5 397 c-3 219 -3 404 -1 411 2 9 102
12 452 12 l449 0 -2 -411z"/>
<path d="M8254 6128 c-34 -7 -78 -6 376 -14 308 -6 510 0 510 14 0 9 -847 9
-886 0z"/>
<path d="M2390 5821 c-14 -5 -40 -16 -58 -25 -24 -13 -37 -14 -52 -6 -15 8
-20 8 -20 -3 0 -7 -5 -18 -12 -25 -22 -22 -18 -42 8 -42 17 0 32 -12 50 -40
31 -47 41 -52 19 -10 -8 16 -15 31 -15 33 0 1 17 4 38 4 25 1 44 -5 60 -20 21
-20 25 -20 49 -7 53 30 55 108 3 135 -32 17 -34 17 -70 6z"/>
<path d="M3920 4768 c-25 -5 -133 -7 -240 -5 -107 3 -204 1 -215 -4 -13 -5 1
-8 45 -9 36 -1 220 -5 410 -9 190 -5 349 -6 353 -3 5 2 88 4 185 4 98 -1 312
0 477 1 165 1 453 2 640 2 187 -1 320 2 295 5 l-45 6 35 5 c19 2 -111 3 -290
1 -322 -4 -450 -4 -605 -2 -44 1 -197 1 -340 0 -143 -1 -325 3 -405 9 -169 13
-238 12 -300 -1z"/>
</g>
</svg>
