<?xml version="1.0" standalone="no"?>
<!DOCTYPE svg PUBLIC "-//W3C//DTD SVG 20010904//EN"
 "http://www.w3.org/TR/2001/REC-SVG-20010904/DTD/svg10.dtd">
<svg version="1.0" xmlns="http://www.w3.org/2000/svg"
 width="512.000000pt" height="512.000000pt" viewBox="0 0 512.000000 512.000000"
 preserveAspectRatio="xMidYMid meet">
<metadata>
Created by potrace 1.16, written by Peter Selinger 2001-2019
</metadata>
<g transform="translate(0.000000,512.000000) scale(0.100000,-0.100000)"
fill="#000000" stroke="none">
<path d="M1032 3500 c-49 -30 -72 -75 -72 -141 0 -42 5 -62 23 -85 12 -17 334
-389 715 -827 775 -889 731 -847 862 -847 133 0 92 -40 853 835 373 429 694
800 713 824 29 38 34 52 34 98 0 66 -19 105 -67 138 l-38 25 -1495 0 c-1474 0
-1495 0 -1528 -20z"/>
</g>
</svg>
