<?xml version="1.0" standalone="no"?>
<!DOCTYPE svg PUBLIC "-//W3C//DTD SVG 20010904//EN"
 "http://www.w3.org/TR/2001/REC-SVG-20010904/DTD/svg10.dtd">
<svg version="1.0" xmlns="http://www.w3.org/2000/svg"
 width="512.000000pt" height="512.000000pt" viewBox="0 0 512.000000 512.000000"
 preserveAspectRatio="xMidYMid meet">
<metadata>
Created by potrace 1.16, written by Peter Selinger 2001-2019
</metadata>
<g transform="translate(0.000000,512.000000) scale(0.100000,-0.100000)"
fill="#000000" stroke="none">
<path d="M3259 4126 c-24 -19 -395 -340 -824 -713 -875 -761 -835 -720 -835
-853 0 -131 -42 -87 847 -862 438 -381 810 -703 827 -715 23 -18 43 -23 85
-23 66 0 111 23 141 72 20 33 20 54 20 1528 l0 1495 -25 38 c-33 48 -72 67
-138 67 -46 0 -60 -5 -98 -34z"/>
</g>
</svg>
