<?xml version="1.0" standalone="no"?>
<!DOCTYPE svg PUBLIC "-//W3C//DTD SVG 20010904//EN"
 "http://www.w3.org/TR/2001/REC-SVG-20010904/DTD/svg10.dtd">
<svg version="1.0" xmlns="http://www.w3.org/2000/svg"
 width="512.000000pt" height="512.000000pt" viewBox="0 0 512.000000 512.000000"
 preserveAspectRatio="xMidYMid meet">
<metadata>
Created by potrace 1.16, written by Peter Selinger 2001-2019
</metadata>
<g transform="translate(0.000000,512.000000) scale(0.100000,-0.100000)"
fill="#000000" stroke="none">
<path d="M2442 3494 c-45 -22 -132 -118 -744 -821 -381 -438 -703 -810 -715
-827 -18 -23 -23 -43 -23 -85 0 -66 23 -111 72 -141 33 -20 54 -20 1528 -20
l1495 0 38 25 c48 33 67 72 67 138 0 46 -5 60 -34 98 -19 24 -340 395 -713
824 -761 875 -720 835 -853 835 -51 0 -78 -6 -118 -26z"/>
</g>
</svg>
